<?xml version="1.0" encoding="UTF-8"?><svg id="Logo" xmlns="http://www.w3.org/2000/svg" viewBox="0 0 622.78 216"><defs><style>.cls-1{fill:#01544f;}.cls-2{fill:#f05a72;}</style></defs><g><path class="cls-2" d="M212.76,194.26h-10.09l-1.83,5.03h-3.17l8.36-22.42h3.36l8.36,22.42h-3.17l-1.83-5.03Zm-1.02-2.79l-4.04-11.05-4,11.05h8.04Z"/><path class="cls-2" d="M237.26,191.29c0,4.74-3.65,8.42-8.1,8.42-2.72,0-4.77-1.22-6.05-3.17v2.75h-2.79v-22.42h2.79v9.16c1.28-1.95,3.33-3.17,6.05-3.17,4.45,0,8.1,3.68,8.1,8.42Zm-2.79,0c0-3.27-2.47-5.73-5.67-5.73s-5.7,2.47-5.7,5.73,2.47,5.73,5.7,5.73,5.67-2.47,5.67-5.73Z"/><path class="cls-2" d="M239.24,191.29c0-4.74,3.75-8.42,8.42-8.42s8.46,3.68,8.46,8.42-3.78,8.42-8.46,8.42-8.42-3.68-8.42-8.42Zm14.09,0c0-3.24-2.47-5.7-5.67-5.7s-5.64,2.47-5.64,5.7,2.47,5.7,5.64,5.7,5.67-2.47,5.67-5.7Z"/><path class="cls-2" d="M272.81,183.28v16.01h-2.79v-2.31c-1.19,1.89-2.95,2.72-5.19,2.72-3.75,0-6.21-2.5-6.21-6.6v-9.83h2.79v9.67c0,2.63,1.51,4.1,3.97,4.1s4.64-1.5,4.64-5.28v-8.49h2.79Z"/><path class="cls-2" d="M281.04,185.97v8.68c0,2.43,1.41,2.27,4.26,2.15v2.5c-4.8,.64-7.05-.64-7.05-4.64v-8.68h-3.17v-2.69h3.17v-3.65l2.79-.83v4.48h4.26v2.69h-4.26Z"/><path class="cls-2" d="M296.19,188.08c0-6.47,5.09-11.63,11.59-11.63s11.63,5.16,11.63,11.63-5.12,11.63-11.63,11.63-11.59-5.19-11.59-11.63Zm20.24,0c0-4.93-3.75-8.74-8.65-8.74s-8.65,3.81-8.65,8.74,3.75,8.71,8.65,8.71,8.65-3.81,8.65-8.71Z"/><path class="cls-2" d="M330.04,182.99v2.92c-2.4-.1-5,1.12-5,4.9v8.49h-2.79v-16.01h2.79v2.69c1.03-2.24,2.98-2.98,5-2.98Z"/><path class="cls-2" d="M348.36,183.28v16.01h-2.79v-2.75c-1.28,1.95-3.33,3.17-6.05,3.17-4.45,0-8.1-3.68-8.1-8.42s3.65-8.42,8.1-8.42c2.72,0,4.77,1.22,6.05,3.17v-2.75h2.79Zm-2.79,8.01c0-3.27-2.47-5.73-5.7-5.73s-5.67,2.47-5.67,5.73,2.47,5.73,5.67,5.73,5.7-2.47,5.7-5.73Z"/><path class="cls-2" d="M352.14,175.91h2.79v23.38h-2.79v-23.38Z"/><path class="cls-2" d="M384.68,176.87v22.42h-2.95v-10.09h-10.89v10.09h-2.98v-22.42h2.98v9.51h10.89v-9.51h2.95Z"/><path class="cls-2" d="M396.5,197.08c2.21,0,3.81-1.02,4.61-2.34l2.37,1.34c-1.41,2.18-3.84,3.62-7.05,3.62-5.16,0-8.58-3.62-8.58-8.42s3.39-8.42,8.39-8.42,7.97,3.97,7.97,8.46c0,.42-.03,.83-.1,1.25h-13.42c.54,2.88,2.82,4.52,5.8,4.52Zm-5.8-6.95h10.7c-.48-3.17-2.75-4.64-5.16-4.64-3.01,0-5.09,1.86-5.54,4.64Z"/><path class="cls-2" d="M423.02,183.28v16.01h-2.79v-2.75c-1.28,1.95-3.33,3.17-6.05,3.17-4.45,0-8.1-3.68-8.1-8.42s3.65-8.42,8.1-8.42c2.72,0,4.77,1.22,6.05,3.17v-2.75h2.79Zm-2.79,8.01c0-3.27-2.47-5.73-5.7-5.73s-5.67,2.47-5.67,5.73,2.47,5.73,5.67,5.73,5.7-2.47,5.7-5.73Z"/><path class="cls-2" d="M426.8,175.91h2.79v23.38h-2.79v-23.38Z"/><path class="cls-2" d="M438.49,185.97v8.68c0,2.43,1.41,2.27,4.26,2.15v2.5c-4.8,.64-7.05-.64-7.05-4.64v-8.68h-3.17v-2.69h3.17v-3.65l2.79-.83v4.48h4.26v2.69h-4.26Z"/><path class="cls-2" d="M460.53,189.46v9.83h-2.79v-9.67c0-2.63-1.5-4.1-3.97-4.1s-4.64,1.51-4.64,5.29v8.49h-2.79v-22.42h2.79v8.71c1.18-1.89,2.95-2.72,5.19-2.72,3.75,0,6.21,2.5,6.21,6.6Z"/></g><path class="cls-2" d="M196.93,123.06c0-11.71,8.68-20.8,20.8-20.8,7.31,0,13.77,3.71,17.2,9.43l-6.8,3.94c-1.94-3.54-5.83-5.71-10.4-5.71-7.83,0-12.97,5.43-12.97,13.14s5.14,13.08,12.97,13.08c4.57,0,8.51-2.17,10.4-5.66l6.8,3.94c-3.37,5.71-9.83,9.43-17.2,9.43-12.11,0-20.8-9.14-20.8-20.8Z"/><path class="cls-2" d="M266.69,114.49v28.57h-7.37v-3.37c-2.06,2.57-5.14,4.17-9.31,4.17-7.6,0-13.88-6.57-13.88-15.08s6.28-15.08,13.88-15.08c4.17,0,7.26,1.6,9.31,4.17v-3.37h7.37Zm-7.37,14.28c0-4.8-3.37-8.06-7.94-8.06s-7.88,3.26-7.88,8.06,3.37,8.06,7.88,8.06,7.94-3.26,7.94-8.06Z"/><path class="cls-2" d="M288.28,113.92v8.23c-3.83-.46-8.69,1.26-8.69,7.26v13.66h-7.37v-28.57h7.37v4.91c1.49-3.89,5.08-5.49,8.69-5.49Z"/><path class="cls-2" d="M305.7,137.17c2.86,0,5.14-1.2,6.4-2.86l5.94,3.43c-2.69,3.89-6.97,6.11-12.46,6.11-9.6,0-15.65-6.57-15.65-15.08s6.11-15.08,15.08-15.08c8.46,0,14.46,6.68,14.46,15.08,0,1.09-.11,2.06-.28,3.03h-21.54c1.03,3.77,4.17,5.37,8.06,5.37Zm6.4-11.09c-.91-4.11-4-5.77-7.09-5.77-3.94,0-6.63,2.11-7.49,5.77h14.57Z"/><path class="cls-2" d="M345.01,134.71c0,6.17-5.37,9.14-11.48,9.14-5.71,0-9.94-2.4-12-6.8l6.4-3.6c.8,2.34,2.74,3.71,5.6,3.71,2.34,0,3.94-.8,3.94-2.46,0-4.17-14.74-1.89-14.74-11.94,0-5.83,4.97-9.08,10.86-9.08,4.63,0,8.63,2.11,10.86,6.06l-6.28,3.43c-.86-1.83-2.46-2.91-4.57-2.91-1.83,0-3.31,.8-3.31,2.34,0,4.23,14.74,1.6,14.74,12.11Z"/><path class="cls-1" d="M218.37,78.38h12.35c-1.4,4.66-5.48,7.75-11.89,7.75-8.51,0-13.93-5.71-13.93-13.29s5.59-13.46,13.35-13.46c4.95,0,9.09,2.39,10.96,5.65l6.88-3.96c-3.44-5.59-10.02-9.5-17.77-9.5-12.18,0-21.39,9.44-21.39,21.27s9.09,21.15,21.85,21.15c11.71,0,20.05-7.81,20.05-19.58v-3.15h-20.46v7.11Z"/><path class="cls-1" d="M251.17,69.06v-5.01h-7.52v29.14h7.52v-13.93c0-6.12,4.95-7.87,8.86-7.4v-8.39c-3.67,0-7.34,1.63-8.86,5.59"/><path class="cls-1" d="M277.27,63.23c-9.15,0-15.39,6.7-15.39,15.39s6.18,15.39,15.97,15.39c5.59,0,9.97-2.27,12.7-6.24l-6.06-3.5c-1.28,1.69-3.61,2.91-6.53,2.91-3.96,0-7.17-1.63-8.22-5.48h21.97c.18-.99,.29-1.98,.29-3.09,0-8.57-6.12-15.39-14.74-15.39m-7.63,12.65c.87-3.73,3.61-5.89,7.63-5.89,3.15,0,6.29,1.69,7.23,5.89h-14.86Z"/><path class="cls-1" d="M310.38,63.23c-9.15,0-15.39,6.7-15.39,15.39s6.18,15.39,15.97,15.39c5.59,0,9.97-2.27,12.7-6.24l-6.06-3.5c-1.28,1.69-3.61,2.91-6.53,2.91-3.96,0-7.17-1.63-8.22-5.48h21.97c.18-.99,.29-1.98,.29-3.09,0-8.57-6.12-15.39-14.74-15.39m-7.63,12.65c.87-3.73,3.61-5.89,7.63-5.89,3.15,0,6.29,1.69,7.23,5.89h-14.86Z"/><path class="cls-1" d="M345.85,63.23c-3.9,0-6.94,1.46-8.68,4.08v-3.26h-7.52v29.14h7.52v-15.73c0-5.07,2.74-7.23,6.41-7.23,3.38,0,5.77,2.04,5.77,6v16.96h7.52v-17.89c0-7.75-4.84-12.06-11.01-12.06"/><path class="cls-1" d="M379.13,69.17c-6.18-1.86-7.75-3.2-7.75-5.71,0-2.33,1.98-4.08,5.36-4.08,4.14,0,6.35,2.16,7.81,5.24l6.76-3.9c-2.74-5.71-7.87-9.15-14.57-9.15s-13.4,4.43-13.4,12.12,6.06,10.37,12.3,12.18c6.06,1.75,8.8,2.91,8.8,5.95,0,2.27-1.69,4.31-6.53,4.31s-7.93-2.45-9.38-6.24l-6.88,4.02c2.21,6.06,7.69,10.08,16.03,10.08s14.8-4.66,14.8-12.3c0-8.33-6.88-10.49-13.35-12.53"/><path class="cls-1" d="M413.11,63.23c-3.9,0-6.94,1.46-8.68,4.08v-14.92h-7.52v40.79h7.52v-15.73c0-5.07,2.74-7.23,6.41-7.23,3.38,0,5.77,2.04,5.77,6v16.96h7.52v-17.89c0-7.75-4.84-12.06-11.01-12.06"/><path class="cls-1" d="M455.84,63.23c-9.15,0-15.39,6.7-15.39,15.39s6.18,15.39,15.97,15.39c5.59,0,9.97-2.27,12.7-6.24l-6.06-3.5c-1.28,1.69-3.61,2.91-6.53,2.91-3.96,0-7.17-1.63-8.22-5.48h21.97c.17-.99,.29-1.98,.29-3.09,0-8.57-6.12-15.39-14.74-15.39m-7.63,12.65c.87-3.73,3.61-5.89,7.63-5.89,3.15,0,6.29,1.69,7.23,5.89h-14.86Z"/><rect class="cls-1" x="475.08" y="52.39" width="7.52" height="40.79"/><path class="cls-1" d="M510.72,67.48c-2.1-2.68-5.19-4.25-9.44-4.25-7.81,0-14.22,6.7-14.22,15.39s6.41,15.39,14.22,15.39c4.26,0,7.34-1.57,9.44-4.26v3.44h7.52V52.39h-7.52v15.09Zm-8.04,19.35c-4.66,0-8.1-3.32-8.1-8.22s3.44-8.22,8.1-8.22,8.04,3.32,8.04,8.22-3.44,8.22-8.04,8.22"/><polygon class="cls-1" points="428.68 93.19 436.19 93.19 436.19 64.05 428.68 71.56 428.68 93.19"/><rect class="cls-2" x="428.68" y="56.53" width="7.52" height="7.52"/><polygon class="cls-1" points="533.23 52.41 531.44 55.25 529.65 52.41 528.52 52.41 528.52 58.09 529.65 58.09 529.65 54.31 531.38 57.06 531.5 57.06 533.23 54.31 533.23 58.09 534.36 58.09 534.36 52.41 533.23 52.41"/><polygon class="cls-1" points="523.44 53.46 525.08 53.46 525.08 58.09 526.22 58.09 526.22 53.46 527.84 53.46 527.84 52.41 523.44 52.41 523.44 53.46"/><path class="cls-2" d="M170.42,53.63h0s.55-.55,.55-.55c0,0,0,.02,.01,.03h0c-.89-1.84-2.08-3.56-3.61-5.08-3.54-3.51-8.24-5.44-13.24-5.44s-9.71,1.93-13.24,5.44l-1.95,1.94-1.96-1.94c-7.3-7.24-19.18-7.24-26.49,0-3.54,3.51-5.48,8.17-5.48,13.13s1.95,9.62,5.48,13.13l28.43,28.27,8.74-8.67-28.43-28.26c-2.48-2.46-2.48-6.47,0-8.93,1.24-1.23,2.87-1.85,4.5-1.85s3.26,.61,4.5,1.85l10.7,10.6,10.7-10.6c1.2-1.19,2.8-1.85,4.5-1.85s3.3,.66,4.5,1.85c2.16,2.14,2.43,5.44,.84,7.89l10.95-10.95Z"/><path class="cls-1" d="M172.81,60.79c-.05-2.64-.65-5.28-1.84-7.71l-32.08,32.08,8.77,8.72,12.98-12.88v25.61l-21.6,21.6-21.93-21.93v-25.44l-6.62-6.56c-3.45-3.42-5.37-7.94-5.47-12.76l.07,50.18,33.75,33.75,34-34V63.88l-.04-3.09Z"/></svg>