<svg id="Layer_1" data-name="Layer 1" xmlns="http://www.w3.org/2000/svg" viewBox="0 0 50 50"><defs><style>.cls-1{fill:#0075a7;}</style></defs><path class="cls-1" d="M5.62,39.77a12.85,12.85,0,0,0,.92-6.3c-1.28-1.21-3.75-3.71-3.34-10C3.9,12.74,11.65,6.6,24.46,6.6c10.51,0,22,5.29,22.37,16.9l-2,.07,2-.07a15,15,0,0,1-5.6,12.64c-5.35,4.34-13.93,5.68-23,3.59l-1.72.57a57.85,57.85,0,0,1-8.69,2.38l-4,.72Zm13-4.1c8.1,2,15.61,1,20.09-2.67a11.13,11.13,0,0,0,4.12-9.36c-.3-8.93-9.71-13-18.33-13C18.35,10.65,8,12.34,7.24,23.7c-.3,4.57,1.25,6,2.17,6.92a7,7,0,0,1,.7.74l.4.55,0,.66A22.14,22.14,0,0,1,10.37,38c1.65-.44,3.17-1,4.82-1.5l2.29-.75.55-.18Z"/></svg>