<svg id="Layer_1" data-name="Layer 1" xmlns="http://www.w3.org/2000/svg" viewBox="0 0 50 50"><defs><style>.cls-1{fill:#81bc00;}.cls-2{fill:#0075a7;}</style></defs><path id="user-1" class="cls-1" d="M32.34,30.15c-2.91-.67-5.61-1.26-4.3-3.73,4-7.53,1.06-11.56-3.16-11.56S17.73,19,21.73,26.42c1.35,2.49-1.46,3.07-4.3,3.73-2.6.6-2.69,1.89-2.69,4.15,0,.26,0,.54,0,.84H35v-.82C35,32.05,35,30.75,32.34,30.15Z"/><path class="cls-2" d="M39.76,28.84c-2-.47-3.88-.87-3-2.59,2.76-5.21.73-8-2.19-8A3.31,3.31,0,0,0,31.49,20c-.15.36-.6.61-.33,2.68a10.58,10.58,0,0,0,1.26,3.53c.6,1.11,0,1.68-1,2.06l1.28.34a4.63,4.63,0,0,1,3.81,3.71h5.12v-.6C41.63,30.19,41.57,29.26,39.76,28.84Z"/><path class="cls-2" d="M4.57,28c1.56-.36,3-.67,2.3-2-2.13-4-.56-6.2,1.7-6.2a2.64,2.64,0,0,1,2.06.87,3.71,3.71,0,0,1,.31,3.78A9.53,9.53,0,0,1,10.26,26a1.31,1.31,0,0,0,.55,1.68c-.31,0-.9.08-.9.08-2.27.52-2.78,1.52-2.89,3.39H3.13v-.68C3.12,29.23,3.17,28.3,4.57,28Z"/><path class="cls-2" d="M45.43,28c-1.56-.36-3-.68-2.3-2,2.13-4,.56-6.21-1.7-6.21a2.65,2.65,0,0,0-2.06.88,3.69,3.69,0,0,0-.31,3.77A10,10,0,0,0,39.74,26a1.3,1.3,0,0,1-.55,1.67c.31,0,.9.08.9.08,2.27.53,2.78,1.52,2.89,3.39h3.89v-.67C46.88,29.24,46.83,28.31,45.43,28Z"/><path class="cls-2" d="M10.22,28.84c2-.47,3.89-.87,3-2.59-2.76-5.21-.73-8,2.19-8A3.31,3.31,0,0,1,18.5,20c.15.36.6.61.33,2.68a10.58,10.58,0,0,1-1.26,3.53c-.6,1.11,0,1.68,1,2.06l-1.17.28-.11.06a4.61,4.61,0,0,0-3.81,3.71H8.37v-.6C8.36,30.19,8.42,29.26,10.22,28.84Z"/></svg>