<svg id="Layer_1" data-name="Layer 1" xmlns="http://www.w3.org/2000/svg" viewBox="0 0 50 50"><defs><style>.cls-1{fill:#81bc00;}.cls-2{fill:#0075a7;}</style></defs><path id="user-1" class="cls-1" d="M32.34,30.15c-2.9-.67-5.61-1.26-4.3-3.73,4-7.53,1.06-11.56-3.15-11.56S17.74,19,21.74,26.42c1.35,2.49-1.46,3.07-4.31,3.73-2.59.6-2.69,1.89-2.68,4.15v.84H35v-.82C35,32.05,35,30.75,32.34,30.15Z"/><path class="cls-2" d="M39.77,28.84c-2-.47-3.89-.87-3-2.59,2.76-5.21.73-8-2.18-8A3.31,3.31,0,0,0,31.5,20c-.16.36-.6.61-.34,2.68a10.81,10.81,0,0,0,1.26,3.53c.61,1.11,0,1.68-1,2.06l1.29.34a4.61,4.61,0,0,1,3.8,3.71h5.13v-.6C41.64,30.19,41.57,29.26,39.77,28.84Z"/><path class="cls-2" d="M10.23,28.84c2-.47,3.89-.87,3-2.59-2.76-5.21-.73-8,2.18-8A3.31,3.31,0,0,1,18.5,20c.16.36.6.61.34,2.68a10.81,10.81,0,0,1-1.26,3.53c-.61,1.11,0,1.68,1,2.06l-1.18.28-.11.06a4.61,4.61,0,0,0-3.8,3.71H8.37v-.6C8.36,30.19,8.43,29.26,10.23,28.84Z"/></svg>