<svg id="Layer_1" data-name="Layer 1" xmlns="http://www.w3.org/2000/svg" viewBox="0 0 50 50"><defs><style>.cls-1{fill:#0075a7;}.cls-2{fill:#81bc00;}</style></defs><path class="cls-1" d="M26.22,44.93,23.29,42c-10.87-9.62-18-16.1-18-24A11.34,11.34,0,0,1,16.8,6.46a12.59,12.59,0,0,1,9.42,4.39,12.59,12.59,0,0,1,9.41-4.39A11.35,11.35,0,0,1,47.13,18c0,8-7.11,14.43-18,24Z"/><polygon class="cls-2" points="24.21 15.37 24.21 20.95 18.63 20.95 18.63 24.94 24.21 24.94 24.21 30.52 29 30.52 29 24.94 34.58 24.94 34.58 20.95 29 20.95 29 15.37 24.21 15.37"/></svg>