<svg id="Layer_1" data-name="Layer 1" xmlns="http://www.w3.org/2000/svg" viewBox="0 0 50 50"><defs><style>.cls-1{fill:#8dc63f;}</style></defs><path class="cls-1" d="M48.51,32.31c-13.3,7.64-24-2.77-37.82,11.61L2,24.58l2.72-2.83,7.38,16.3v0c14.44-10.86,21.71-2.28,35.12-8.85.58,1.25,1.1,2.58,1.33,3.09M43,21.36a10.28,10.28,0,0,0-1.59,3.38c-7,2.12-15.31-.39-23.31,2.41a9.09,9.09,0,0,0-4.25-1.08l-2.2-4.83a9.58,9.58,0,0,0,1.78-4.06c6.59-2.38,14.84.3,23.66-2.72a9.72,9.72,0,0,0,3.36,1.4ZM48.43,25,41.13,9c-12,7.76-25.23-.62-34.82,8.64l7.3,15.94C23.89,24.88,37.9,33.13,48.43,25m-20-2.05.2.45-.42.08L28,23a3.32,3.32,0,0,1-1.4-.05l-.12-.75a4.12,4.12,0,0,0,1.21,0l.24-.08c.43-.22.29-.76-.34-.88s-1.73,0-2.2-1.07a1,1,0,0,1,.69-1.49l-.21-.46.42-.09.2.44a4.26,4.26,0,0,1,1.09,0l.17.74a3,3,0,0,0-1,0l-.12,0c-.6.16-.41.73.13.86.87.21,1.92.27,2.34,1.19a1,1,0,0,1-.7,1.5m-2.88-5.81a3.09,3.09,0,0,0-2.39,4.51,5.51,5.51,0,0,0,6,3.11,3.08,3.08,0,0,0,2.07-4.45,5.55,5.55,0,0,0-5.69-3.17"/></svg>