<svg id="Layer_1" data-name="Layer 1" xmlns="http://www.w3.org/2000/svg" xmlns:xlink="http://www.w3.org/1999/xlink" viewBox="0 0 50 50"><defs><style>.cls-1{fill:none;}.cls-2{fill:#0075a7;}.cls-3{fill:#fff;}.cls-4{fill:#81bc00;}.cls-5{clip-path:url(#clip-path);}</style><clipPath id="clip-path"><rect class="cls-1" x="1.07" y="9.55" width="46.66" height="28.21"/></clipPath></defs><rect class="cls-2" x="5.58" y="9.55" width="37.63" height="27.33" rx="1.4"/><path class="cls-2" d="M1.07,35v1.4a1.4,1.4,0,0,0,1.4,1.4H46.33a1.4,1.4,0,0,0,1.4-1.4V35Z"/><path class="cls-3" d="M41.18,32.76a.3.3,0,0,1-.3.28h-33a.29.29,0,0,1-.29-.28V11.63a.29.29,0,0,1,.29-.29h33a.3.3,0,0,1,.3.29Z"/><rect class="cls-1" x="1.07" y="9.55" width="46.66" height="28.21"/><rect class="cls-4" x="9" y="36.26" width="4.21" height="0.2"/><g class="cls-5"><path class="cls-4" d="M6.06,36.36a.24.24,0,0,1-.24.24.24.24,0,0,1,0-.48.24.24,0,0,1,.24.24"/><path class="cls-4" d="M7.29,36.36a.25.25,0,1,1-.24-.24.24.24,0,0,1,.24.24"/></g><polygon class="cls-4" points="22.27 15.45 22.27 20.64 17.08 20.64 17.08 24.34 22.27 24.34 22.27 29.53 26.72 29.53 26.72 24.34 31.91 24.34 31.91 20.64 26.72 20.64 26.72 15.45 22.27 15.45"/><path class="cls-4" d="M36.62,20.65H46.67a1.23,1.23,0,0,1,1.23,1.23V44.06a1.23,1.23,0,0,1-1.23,1.23H36.62a1.23,1.23,0,0,1-1.23-1.23V21.88a1.23,1.23,0,0,1,1.23-1.23"/><path class="cls-2" d="M41.7,42.53a1.08,1.08,0,1,1-1.08,1.08,1.08,1.08,0,0,1,1.08-1.08m0,1.76a.68.68,0,1,0-.69-.68.68.68,0,0,0,.69.68"/><path class="cls-3" d="M41.7,42.93a.68.68,0,1,1-.69.68.68.68,0,0,1,.69-.68"/><path class="cls-2" d="M40,22.75a.13.13,0,0,0,.13.13H42.8a.13.13,0,0,0,0-.26H40.11a.13.13,0,0,0-.13.13"/><path class="cls-3" d="M42.1,21.91a.37.37,0,0,0-.37-.38.38.38,0,1,0,0,.75.37.37,0,0,0,.37-.37"/><path class="cls-2" d="M43.66,22.76a.17.17,0,0,0-.17-.17.18.18,0,0,0-.17.17.17.17,0,0,0,.17.17.16.16,0,0,0,.17-.17"/><rect class="cls-1" x="35.39" y="20.65" width="12.52" height="24.64"/><rect class="cls-3" x="36.3" y="23.74" width="10.8" height="18.31"/></svg>