<svg id="Layer_1" data-name="Layer 1" xmlns="http://www.w3.org/2000/svg" xmlns:xlink="http://www.w3.org/1999/xlink" viewBox="0 0 50 50"><defs><style>.cls-1{fill:none;}.cls-2{clip-path:url(#clip-path);}.cls-3{fill:#81bc00;}.cls-4{fill:#0075a7;}</style><clipPath id="clip-path"><rect class="cls-1" x="3.1" y="3.98" width="44.08" height="38.74"/></clipPath></defs><g class="cls-2"><path class="cls-3" d="M45.1,26.8a3.27,3.27,0,0,1,1,2.34,3.11,3.11,0,0,1-2.14,3,3,3,0,0,1,.89,2.16v.09a2.86,2.86,0,0,1-1.88,2.76,3,3,0,0,1,1,2.3v.28a2.84,2.84,0,0,1-2.69,2.95H26.37s-4,0-4.73-.94a6.59,6.59,0,0,0-2-1.46l-.53-.25H14.58V24.27a19.8,19.8,0,0,0,6.48-1.55,4.62,4.62,0,0,0,1.16-.82c2-2,5-7.57,5.4-10.49s-.33-4.93,0-6.39,5.31-2.56,6.81,5.29a20.91,20.91,0,0,1,0,8.24c-.1.45-.2.87-.32,1.25h9.75a3.06,3.06,0,0,1,1.75.56,3.73,3.73,0,0,1,1.55,3.07A3.65,3.65,0,0,1,45.1,26.8"/><path class="cls-4" d="M18.51,22.83V41.19A1.54,1.54,0,0,1,17,42.72H4.64a1.54,1.54,0,0,1-1.52-1.8L4.68,32l1.65-9.45a1.53,1.53,0,0,1,1.51-1.27H17a1.54,1.54,0,0,1,1.54,1.54"/></g></svg>