<svg id="Layer_1" data-name="Layer 1" xmlns="http://www.w3.org/2000/svg" viewBox="0 0 50 50"><defs><style>.cls-1{fill:#8bc53f;}.cls-2{fill:#0075a7;}</style></defs><rect class="cls-1" x="16.41" y="29.78" width="8.59" height="0.86"/><path class="cls-2" d="M37.56,7.82c-2.2,0-3.91-2.58-5.38-4.3H17.84c-1.47,1.72-3.18,4.3-5.38,4.3H7V46.48H43V7.82ZM25,6.55a1.8,1.8,0,1,1-1.79,1.8A1.8,1.8,0,0,1,25,6.55ZM39.61,43.9H32.5a87.48,87.48,0,0,0,7.11-8.41Zm0-16.65c0,7.37-10.89,5.15-10.89,5.15s2.6,11.5-4.86,11.5H11.25V10.39h6.59l3.76,4.3h7l3.59-4.3h7.43Z"/><rect class="cls-1" x="16.41" y="22.33" width="18.04" height="1.72"/><rect class="cls-1" x="16.41" y="18.61" width="18.04" height="1.72"/><rect class="cls-1" x="16.41" y="26.06" width="18.04" height="1.72"/></svg>