<svg width="15" height="18" viewBox="0 0 15 18" fill="none" xmlns="http://www.w3.org/2000/svg">
<path d="M6.69208 12.3789C6.9064 12.5663 7.19704 12.6717 7.50008 12.6717C7.80313 12.6717 8.09376 12.5663 8.30808 12.3789L14.0224 7.37887C14.1315 7.28663 14.2186 7.17628 14.2785 7.05428C14.3384 6.93228 14.3699 6.80106 14.3712 6.66828C14.3725 6.5355 14.3436 6.40382 14.2862 6.28092C14.2287 6.15802 14.1438 6.04637 14.0365 5.95248C13.9292 5.85859 13.8016 5.78433 13.6612 5.73405C13.5207 5.68377 13.3702 5.65847 13.2185 5.65962C13.0667 5.66078 12.9168 5.68836 12.7773 5.74077C12.6379 5.79318 12.5118 5.86937 12.4064 5.96488L8.64294 9.25788V1.67188C8.64294 1.40666 8.52253 1.1523 8.3082 0.964768C8.09388 0.777232 7.80319 0.671875 7.50008 0.671875C7.19698 0.671875 6.90629 0.777232 6.69196 0.964768C6.47763 1.1523 6.35722 1.40666 6.35722 1.67188V9.25788L2.5938 5.96488C2.37825 5.78272 2.08956 5.68192 1.78991 5.6842C1.49026 5.68648 1.20361 5.79165 0.991718 5.97706C0.779823 6.16246 0.65963 6.41328 0.657026 6.67547C0.654422 6.93767 0.769615 7.19027 0.977796 7.37887L6.69208 12.3789Z" fill="#00544E"/>
<path transform="translate(0 15)" d="M1.64286 1.17188H15.3571C15.5476 1.17188 15.719 1.23868 15.836 1.34106C15.9509 1.44157 16 1.56245 16 1.67188C16 1.7813 15.9509 1.90218 15.836 2.00269C15.719 2.10507 15.5476 2.17188 15.3571 2.17188H1.64286C1.4524 2.17188 1.28099 2.10507 1.16399 2.00269C1.04911 1.90218 1 1.7813 1 1.67188C1 1.56245 1.04911 1.44157 1.16399 1.34106C1.28099 1.23868 1.4524 1.17188 1.64286 1.17188Z" fill="#00544E" stroke="#00544E"/>
</svg>
