<svg width="15" height="15" viewBox="0 0 15 15" fill="none" xmlns="http://www.w3.org/2000/svg">
  <path transform="translate(5 0)" d="M5 0C3.7 0 2.4 0.5 1.5 1.5L0.3 2.6C-0.1 3 -0.1 3.6 0.3 4C0.7 4.4 1.3 4.4 1.7 4L2.9 2.8C4 1.7 6 1.7 7.1 2.8C7.7 3.4 8 4.2 8 5C8 5.8 7.7 6.6 7.1 7.1L6 8.3C5.6 8.7 5.6 9.3 6 9.7C6.2 9.9 6.5 10 6.7 10C6.9 10 7.2 9.9 7.4 9.7L8.6 8.5C9.5 7.6 10 6.3 10 5C10 3.7 9.5 2.4 8.5 1.5C7.6 0.5 6.3 0 5 0Z" fill="#00544E"/>
  <path transform="translate(3.5 3.5)" d="M5.40039 1.19844L1.20039 5.39844C0.800391 5.79844 0.800391 6.39844 1.20039 6.79844C1.40039 6.99844 1.70039 7.09844 1.90039 7.09844C2.10039 7.09844 2.40039 6.99844 2.60039 6.79844L6.80039 2.59844C7.20039 2.19844 7.20039 1.59844 6.80039 1.19844C6.40039 0.798438 5.80039 0.798438 5.40039 1.19844Z" fill="#00544E"/>
  <path transform="translate(0 5)" d="M8.3 6L7.1 7.2C6 8.3 4 8.3 2.9 7.2C2.3 6.6 2 5.8 2 5C2 4.2 2.3 3.4 2.9 2.9L4 1.7C4.4 1.3 4.4 0.7 4 0.3C3.6 -0.1 3 -0.1 2.6 0.3L1.5 1.5C0.5 2.4 0 3.7 0 5C0 6.3 0.5 7.6 1.5 8.5C2.4 9.5 3.7 10 5 10C6.3 10 7.6 9.5 8.5 8.5L9.7 7.3C10.1 6.9 10.1 6.3 9.7 5.9C9.3 5.5 8.7 5.6 8.3 6Z" fill="#00544E"/>
</svg>
